<?xml version="1.0" encoding="iso-8859-1"?>
<!-- Uploaded to: SVG Repo, www.svgrepo.com, Generator: SVG Repo Mixer Tools -->
<!DOCTYPE svg PUBLIC "-//W3C//DTD SVG 1.1//EN" "http://www.w3.org/Graphics/SVG/1.1/DTD/svg11.dtd">
<svg fill="#000000" version="1.1" id="Capa_1" xmlns="http://www.w3.org/2000/svg" xmlns:xlink="http://www.w3.org/1999/xlink" 
	 width="800px" height="800px" viewBox="0 0 83.818 83.818"
	 xml:space="preserve">
<g>
	<g>
		<path d="M41.909,83.818c23.146,0,41.908-18.765,41.908-41.908C83.817,18.764,65.056,0,41.909,0C18.764,0,0.001,18.764,0.001,41.91
			C0,65.054,18.764,83.818,41.909,83.818z M38.061,23.806c8.906,0,16.152,7.246,16.152,16.152c0,3.386-1.051,6.526-2.839,9.127
			l11.701,9.137c0.436,0.34,0.512,0.97,0.172,1.403c-0.197,0.253-0.491,0.385-0.789,0.385c-0.215,0-0.432-0.068-0.615-0.212
			l-11.711-9.146c-2.961,3.338-7.269,5.457-12.072,5.457c-8.906,0-16.152-7.246-16.152-16.151
			C21.908,31.052,29.155,23.806,38.061,23.806z"/>
		<path d="M38.061,54.111c7.804,0,14.152-6.35,14.152-14.152c0-7.803-6.349-14.152-14.152-14.152s-14.152,6.349-14.152,14.152
			C23.909,47.762,30.257,54.111,38.061,54.111z M26.199,39.958c0-0.553,0.448-1,1-1h14.759c0.281-3.013,1.814-5.181,3.791-5.181
			c2.189,0,3.841,2.657,3.841,6.181s-1.651,6.181-3.841,6.181c-1.977,0-3.51-2.168-3.791-5.181H34.8v2.593c0,0.553-0.448,1-1,1
			c-0.552,0-1-0.447-1-1v-2.593h-1.844v2.175c0,0.553-0.448,1-1,1c-0.552,0-1-0.447-1-1v-2.175h-1.757
			C26.646,40.958,26.199,40.511,26.199,39.958z"/>
		<path d="M45.748,44.139c0.75,0,1.841-1.629,1.841-4.181c0-2.552-1.09-4.181-1.841-4.181s-1.841,1.629-1.841,4.181
			C43.907,42.51,44.998,44.139,45.748,44.139z"/>
	</g>
</g>
</svg>